<?xml version="1.0" encoding="UTF-8"?>
<svg xmlns="http://www.w3.org/2000/svg" xmlns:xlink="http://www.w3.org/1999/xlink" width="230" height="210" viewBox="0 0 23 21">
<path fill-rule="evenodd" fill="rgb(13.729858%, 12.159729%, 12.548828%)" fill-opacity="1" d="M 0.316406 20.578125 L 0.316406 18.355469 L 1.984375 18.355469 L 1.984375 18.652344 L 0.609375 18.652344 L 0.609375 19.273438 L 1.449219 19.273438 L 1.449219 19.566406 L 0.609375 19.566406 L 0.609375 20.273438 L 1.996094 20.273438 L 1.996094 20.578125 Z M 3.355469 18.65625 L 3.355469 20.578125 L 3.066406 20.578125 L 3.066406 18.65625 L 2.277344 18.65625 L 2.277344 18.355469 L 4.148438 18.355469 L 4.148438 18.65625 Z M 4.632812 20.578125 L 4.632812 18.355469 L 4.925781 18.355469 L 4.925781 19.261719 L 6.285156 19.261719 L 6.285156 18.355469 L 6.574219 18.355469 L 6.574219 20.578125 L 6.285156 20.578125 L 6.285156 19.570312 L 4.925781 19.570312 L 4.925781 20.578125 Z M 7.472656 20.578125 L 7.472656 18.355469 L 9.136719 18.355469 L 9.136719 18.652344 L 7.761719 18.652344 L 7.761719 19.273438 L 8.605469 19.273438 L 8.605469 19.566406 L 7.761719 19.566406 L 7.761719 20.273438 L 9.152344 20.273438 L 9.152344 20.578125 Z M 11.121094 18.640625 L 10.128906 18.640625 L 10.128906 19.425781 L 11.121094 19.425781 C 11.191406 19.425781 11.242188 19.40625 11.269531 19.375 C 11.292969 19.339844 11.304688 19.28125 11.304688 19.195312 L 11.304688 18.871094 C 11.304688 18.789062 11.292969 18.730469 11.265625 18.695312 C 11.238281 18.660156 11.191406 18.640625 11.121094 18.640625 Z M 9.839844 20.578125 L 9.839844 18.355469 L 11.234375 18.355469 C 11.363281 18.355469 11.457031 18.386719 11.511719 18.457031 C 11.570312 18.523438 11.597656 18.632812 11.597656 18.785156 L 11.597656 19.28125 C 11.597656 19.433594 11.570312 19.542969 11.511719 19.609375 C 11.457031 19.679688 11.363281 19.710938 11.234375 19.710938 L 10.980469 19.710938 L 11.769531 20.578125 L 11.339844 20.578125 L 10.636719 19.710938 L 10.128906 19.710938 L 10.128906 20.578125 Z M 12.394531 20.578125 L 12.394531 18.355469 L 12.574219 18.355469 L 13.867188 19.84375 C 13.898438 19.875 13.929688 19.917969 13.964844 19.964844 C 13.996094 20.011719 14.03125 20.0625 14.066406 20.121094 C 14.054688 20.050781 14.050781 19.976562 14.046875 19.898438 C 14.039062 19.820312 14.039062 19.710938 14.039062 19.574219 L 14.039062 18.355469 L 14.304688 18.355469 L 14.304688 20.578125 L 14.140625 20.578125 L 12.8125 19.03125 C 12.808594 19.023438 12.796875 19.011719 12.785156 19 C 12.71875 18.921875 12.667969 18.851562 12.636719 18.78125 C 12.644531 18.847656 12.648438 18.921875 12.652344 18.996094 C 12.65625 19.074219 12.65625 19.164062 12.65625 19.269531 L 12.65625 20.578125 Z M 15.199219 20.578125 L 15.199219 18.355469 L 16.867188 18.355469 L 16.867188 18.652344 L 15.488281 18.652344 L 15.488281 19.273438 L 16.332031 19.273438 L 16.332031 19.566406 L 15.488281 19.566406 L 15.488281 20.273438 L 16.878906 20.273438 L 16.878906 20.578125 Z M 18.238281 18.65625 L 18.238281 20.578125 L 17.949219 20.578125 L 17.949219 18.65625 L 17.15625 18.65625 L 17.15625 18.355469 L 19.03125 18.355469 L 19.03125 18.65625 L 18.238281 18.65625 "/>
<path fill-rule="evenodd" fill="rgb(13.729858%, 12.159729%, 12.548828%)" fill-opacity="1" d="M 1.242188 7.90625 L 0.375 7.90625 L 3.617188 0.871094 L 4.605469 0.871094 L 7.839844 7.90625 L 6.960938 7.90625 L 5.960938 5.699219 L 2.242188 5.699219 Z M 5.671875 5.066406 L 4.089844 1.53125 L 2.527344 5.066406 Z M 9.15625 1.5625 L 9.15625 7.90625 L 8.347656 7.90625 L 8.347656 0.871094 L 10.59375 0.871094 C 11.085938 0.871094 11.480469 0.902344 11.785156 0.964844 C 12.082031 1.027344 12.355469 1.132812 12.601562 1.277344 C 12.933594 1.472656 13.195312 1.734375 13.390625 2.066406 C 13.585938 2.394531 13.679688 2.742188 13.679688 3.109375 C 13.679688 3.652344 13.488281 4.121094 13.105469 4.515625 C 12.71875 4.910156 12.238281 5.121094 11.660156 5.15625 L 13.679688 7.90625 L 12.703125 7.90625 L 10.222656 4.515625 L 11.015625 4.515625 C 11.542969 4.515625 11.972656 4.382812 12.304688 4.125 C 12.636719 3.863281 12.800781 3.527344 12.800781 3.117188 C 12.800781 2.871094 12.753906 2.644531 12.648438 2.441406 C 12.550781 2.238281 12.398438 2.0625 12.199219 1.910156 C 12.035156 1.785156 11.835938 1.695312 11.605469 1.640625 C 11.375 1.589844 10.960938 1.5625 10.367188 1.5625 L 9.15625 1.5625 "/>
<path fill-rule="evenodd" fill="rgb(13.729858%, 12.159729%, 12.548828%)" fill-opacity="1" d="M 18.976562 17.839844 L 17.808594 17.839844 L 17.808594 1.898438 L 14.398438 1.898438 L 14.398438 0.777344 L 22.527344 0.777344 L 22.527344 1.898438 L 18.976562 1.898438 L 18.976562 17.839844 "/>
<path fill-rule="evenodd" fill="rgb(13.729858%, 12.159729%, 12.548828%)" fill-opacity="1" d="M 11.808594 12.566406 L 16.589844 12.566406 L 16.589844 13.511719 L 11.808594 13.511719 L 11.808594 16.914062 L 16.589844 16.914062 L 16.589844 17.839844 L 10.683594 17.839844 L 10.683594 8.28125 L 16.589844 8.28125 L 16.589844 9.21875 L 11.808594 9.21875 L 11.808594 12.566406 "/>
<path fill-rule="evenodd" fill="rgb(13.729858%, 12.159729%, 12.548828%)" fill-opacity="1" d="M 8.101562 16.699219 L 7.964844 8.28125 L 9.109375 8.28125 L 9.109375 17.839844 L 7.722656 17.839844 L 1.269531 9.410156 L 1.398438 17.839844 L 0.261719 17.839844 L 0.261719 8.28125 L 1.652344 8.28125 L 8.101562 16.699219 "/>
</svg>
